<svg xmlns="http://www.w3.org/2000/svg" width="128" height="128" viewBox="0 0 128 128">
  <defs>
    <linearGradient id="championGrad" x1="0%" y1="0%" x2="100%" y2="100%">
      <stop offset="0%" style="stop-color:#fbbf24;stop-opacity:1" />
      <stop offset="100%" style="stop-color:#f59e0b;stop-opacity:1" />
    </linearGradient>
    <radialGradient id="championGlow">
      <stop offset="0%" style="stop-color:#fbbf24;stop-opacity:0.5" />
      <stop offset="100%" style="stop-color:#f59e0b;stop-opacity:0" />
    </radialGradient>
  </defs>
  <circle cx="64" cy="64" r="60" fill="url(#championGlow)"/>
  <circle cx="64" cy="64" r="58" fill="url(#championGrad)" opacity="0.2"/>
  <circle cx="64" cy="64" r="52" fill="none" stroke="url(#championGrad)" stroke-width="4"/>
  <path d="M 40 75 L 45 50 L 35 50 L 45 30 L 55 30 L 50 45 L 60 45 L 64 60 L 68 45 L 78 45 L 73 30 L 83 30 L 93 50 L 83 50 L 88 75 L 75 65 L 64 85 L 53 65 Z" fill="url(#championGrad)"/>
  <circle cx="64" cy="45" r="8" fill="url(#championGrad)"/>
  <path d="M 64 25 L 67 35 L 77 35 L 69 41 L 72 51 L 64 45 L 56 51 L 59 41 L 51 35 L 61 35 Z" fill="#fff" opacity="0.4"/>
</svg>